<svg width="416" height="512" xmlns="http://www.w3.org/2000/svg" class="svg-inline--fa fa-utensils fa-w-13">
 <g stroke="null">
  <title>Layer 1</title>
  <g stroke="null" id="svg_6">
   <path stroke="null" fill="currentColor" d="m393.69211,3.32584l-310.85049,0c-14.73573,0 -27.30044,17.59161 -31.96673,42.08205l-30.20336,0c-9.36437,0 -16.95548,14.13036 -16.95548,31.56154l0,357.69746c0,40.67231 17.71283,73.64359 39.56279,73.64359l350.41328,0c9.36437,0 16.95548,-14.13036 16.95548,-31.56154l0,-441.86157c0,-17.43118 -7.59111,-31.56154 -16.95548,-31.56154l-0.00001,0zm-356.06511,431.34106l0,-326.13592l11.30365,0l0,326.13592c0,5.80075 -2.53555,10.52051 -5.65183,10.52051s-5.65183,-4.71977 -5.65183,-10.52051l0.00001,0zm339.10963,10.52051l-294.30335,0c0.26422,-3.43758 0.40834,-6.94749 0.40834,-10.52051l0,-368.21797l293.89501,0l0,378.73849zm-251.50631,-157.8077l96.08106,0c4.68183,0 8.47774,-7.06584 8.47774,-15.78077l0,-126.24616c0,-8.71493 -3.79591,-15.78077 -8.47774,-15.78077l-96.08106,0c-4.68183,0 -8.47774,7.06584 -8.47774,15.78077l0,126.24616c0,8.71493 3.79591,15.78077 8.47774,15.78077zm19.78139,-105.20514l56.51827,0l0,52.60257l-56.51827,0l0,-52.60257zm-28.25914,184.10899l0,-31.56154c0,-8.71493 3.79591,-15.78077 8.47774,-15.78077l96.08106,0c4.68183,0 8.47774,7.06584 8.47774,15.78077l0,31.56154c0,8.71493 -3.79591,15.78077 -8.47774,15.78077l-96.08106,0c-4.68183,0 -8.47774,-7.06584 -8.47774,-15.78077zm135.64385,0l0,-31.56154c0,-8.71493 3.79591,-15.78077 8.47774,-15.78077l73.47375,0c4.68183,0 8.47774,7.06584 8.47774,15.78077l0,31.56154c0,8.71493 -3.79591,15.78077 -8.47774,15.78077l-73.47375,0c-4.68183,0 -8.47774,-7.06584 -8.47774,-15.78077zm0,-189.36924l0,-31.56154c0,-8.71493 3.79591,-15.78077 8.47774,-15.78077l73.47375,0c4.68183,0 8.47774,7.06584 8.47774,15.78077l0,31.56154c0,8.71493 -3.79591,15.78077 -8.47774,15.78077l-73.47375,0c-4.68183,0 -8.47774,-7.06584 -8.47774,-15.78077zm0,94.68462l0,-31.56154c0,-8.71493 3.79591,-15.78077 8.47774,-15.78077l73.47375,0c4.68183,0 8.47774,7.06584 8.47774,15.78077l0,31.56154c0,8.71493 -3.79591,15.78077 -8.47774,15.78077l-73.47375,0c-4.68183,0 -8.47774,-7.06584 -8.47774,-15.78077z" id="svg_5"/>
  </g>
 </g>

</svg>